<?xml version="1.0" standalone="no"?>
<!DOCTYPE svg PUBLIC "-//W3C//DTD SVG 20010904//EN"
 "http://www.w3.org/TR/2001/REC-SVG-20010904/DTD/svg10.dtd">
<svg version="1.0" xmlns="http://www.w3.org/2000/svg"
 width="700.000000pt" height="700.000000pt" viewBox="0 0 700.000000 700.000000"
 preserveAspectRatio="xMidYMid meet">
<metadata>
Created by potrace 1.11, written by Peter Selinger 2001-2013
</metadata>
<g transform="translate(0.000000,700.000000) scale(0.100000,-0.100000)"
fill="#000000" stroke="none">
<path d="M3279 6996 c-2 -2 -48 -7 -102 -10 -53 -4 -103 -8 -110 -11 -6 -2
-37 -6 -67 -10 -95 -10 -343 -64 -485 -105 -631 -185 -1220 -560 -1640 -1045
-33 -38 -68 -79 -78 -90 -38 -42 -157 -204 -224 -305 -194 -293 -345 -624
-443 -970 -42 -150 -93 -403 -105 -525 -4 -38 -10 -79 -12 -90 -3 -11 -6 -135
-8 -275 -3 -231 7 -427 29 -550 3 -19 8 -48 11 -65 5 -30 22 -123 29 -160 48
-244 156 -561 273 -802 312 -645 813 -1180 1433 -1529 254 -144 461 -230 785
-327 66 -20 186 -47 295 -67 30 -6 66 -12 80 -15 14 -3 52 -8 85 -11 33 -3 63
-8 66 -9 15 -10 227 -20 409 -20 188 0 341 8 430 21 144 21 295 48 345 61 33
8 67 16 75 18 109 22 388 117 549 187 121 53 308 148 353 179 14 11 29 19 33
19 24 0 383 257 495 355 118 103 293 278 365 365 21 25 41 47 44 50 4 3 45 55
91 115 399 525 630 1111 705 1790 13 120 13 588 0 685 -28 212 -40 282 -66
400 -217 980 -827 1805 -1705 2304 -361 205 -847 367 -1249 416 -49 6 -103 13
-120 16 -37 7 -560 16 -566 10z m426 -2264 c437 -73 818 -391 968 -807 106
-296 98 -629 -23 -912 -119 -278 -328 -499 -600 -634 -73 -37 -199 -83 -250
-92 -14 -3 -36 -8 -50 -11 -68 -16 -95 -18 -225 -21 -276 -6 -493 57 -725 211
-273 180 -477 493 -527 809 -2 17 -8 46 -12 66 -14 62 -5 307 13 394 103 482
429 833 897 968 46 14 116 28 154 32 39 4 72 8 74 10 7 7 246 -3 306 -13z"/>
</g>
</svg>
