<?xml version="1.0" standalone="no"?><!-- Generator: Gravit.io --><svg xmlns="http://www.w3.org/2000/svg" xmlns:xlink="http://www.w3.org/1999/xlink" style="isolation:isolate" viewBox="0 0 595.276 297.638" width="595.276" height="297.638"><defs><clipPath id="_clipPath_N2uASOYbvvsm77IH2llipa1WvhnO1GQ5"><rect width="595.276" height="297.638"/></clipPath></defs><g clip-path="url(#_clipPath_N2uASOYbvvsm77IH2llipa1WvhnO1GQ5)"><g id="coffee-bean-for-a-coffee-break"><g id="Group"><path d=" M 31.712 196.522 C 19.729 173.127 27.883 136.434 52.675 108.981 C 80.828 77.818 119.755 70.389 139.631 92.388 C 139.654 92.417 139.673 92.449 139.705 92.478 C 135.728 105.29 123.061 132.55 85.091 147.288 C 50.309 160.796 36.892 182.272 31.712 196.522 Z  M 145.221 100.396 C 142.208 108.177 136.965 118.344 127.93 128.345 C 118.849 138.402 105.943 148.28 87.661 155.379 C 50.557 169.783 40.19 193.364 37.297 204.791 C 37.434 204.943 37.551 205.101 37.684 205.25 C 57.557 227.249 96.487 219.82 124.638 188.652 C 149.687 160.921 157.743 123.752 145.221 100.396 Z " fill="rgb(58,23,13)"/></g></g><g id="coffee-bean-for-a-coffee-break"><g id="Group"><path d=" M 231.502 196.522 C 219.518 173.127 227.673 136.434 252.464 108.981 C 280.617 77.818 319.545 70.389 339.42 92.388 C 339.443 92.417 339.463 92.449 339.495 92.478 C 335.517 105.29 322.85 132.55 284.88 147.288 C 250.098 160.796 236.681 182.272 231.502 196.522 Z  M 345.01 100.396 C 341.998 108.177 336.754 118.344 327.72 128.345 C 318.639 138.402 305.732 148.28 287.451 155.379 C 250.346 169.783 239.979 193.364 237.087 204.791 C 237.223 204.943 237.341 205.101 237.474 205.25 C 257.347 227.249 296.276 219.82 324.427 188.652 C 349.477 160.921 357.533 123.752 345.01 100.396 Z " fill="rgb(58,23,13)"/></g></g><g id="coffee-bean-for-a-coffee-break"><g id="Group"><path d=" M 431.291 196.522 C 419.308 173.127 427.462 136.434 452.254 108.981 C 480.407 77.818 519.334 70.389 539.209 92.388 C 539.233 92.417 539.252 92.449 539.284 92.478 C 535.306 105.29 522.639 132.55 484.67 147.288 C 449.888 160.796 436.47 182.272 431.291 196.522 Z  M 544.8 100.396 C 541.787 108.177 536.544 118.344 527.509 128.345 C 518.428 138.402 505.522 148.28 487.24 155.379 C 450.136 169.783 439.769 193.364 436.876 204.791 C 437.013 204.943 437.13 205.101 437.263 205.25 C 457.136 227.249 496.066 219.82 524.217 188.652 C 549.266 160.921 557.322 123.752 544.8 100.396 Z " fill="rgb(58,23,13)"/></g></g></g></svg>