<?xml version="1.0" encoding="UTF-8" standalone="no"?>
<!DOCTYPE svg PUBLIC "-//W3C//DTD SVG 1.1//EN" "http://www.w3.org/Graphics/SVG/1.1/DTD/svg11.dtd">
<svg width="100%" height="100%" viewBox="0 0 50 50" version="1.1" xmlns="http://www.w3.org/2000/svg" xmlns:xlink="http://www.w3.org/1999/xlink" xml:space="preserve" style="fill-rule:evenodd;clip-rule:evenodd;stroke-linejoin:round;stroke-miterlimit:1.41421;">
    <g transform="matrix(1.26498,0,0,1.26498,-6.34649,-7.23424)">
        <g transform="matrix(1,0,0,1,-2.7018,-1.03608)">
            <path d="M27.482,8C37.702,8 46,16.298 46,26.518C46,36.738 37.702,45.036 27.482,45.036C17.262,45.036 8.964,36.738 8.964,26.518C8.964,16.298 17.262,8 27.482,8ZM27.482,20.592C30.752,20.592 33.408,23.248 33.408,26.518C33.408,29.789 30.752,32.444 27.482,32.444C24.211,32.444 21.556,29.789 21.556,26.518C21.556,23.248 24.211,20.592 27.482,20.592Z" style="fill:rgb(240,108,67);"/>
            <clipPath id="_clip1">
                <path d="M27.482,8C37.702,8 46,16.298 46,26.518C46,36.738 37.702,45.036 27.482,45.036C17.262,45.036 8.964,36.738 8.964,26.518C8.964,16.298 17.262,8 27.482,8ZM27.482,20.592C30.752,20.592 33.408,23.248 33.408,26.518C33.408,29.789 30.752,32.444 27.482,32.444C24.211,32.444 21.556,29.789 21.556,26.518C21.556,23.248 24.211,20.592 27.482,20.592Z"/>
            </clipPath>
            <g clip-path="url(#_clip1)">
                <g transform="matrix(6.39526e-17,1.04443,-1.04443,6.39526e-17,53.2152,-11.0913)">
                    <circle cx="35.05" cy="22.368" r="18.368" style="fill:rgb(244,141,108);"/>
                </g>
                <g transform="matrix(1,0,0,1,-10.1792,1.32914)">
                    <path d="M35.121,10.912C35.836,10.323 36.734,10 37.661,10C38.588,10 39.486,10.323 40.201,10.912L42.256,12.608C42.295,12.639 42.338,12.664 42.385,12.682C42.432,12.699 42.482,12.708 42.532,12.708L45.196,12.73C46.123,12.738 47.018,13.068 47.728,13.664C48.438,14.26 48.918,15.084 49.087,15.996L49.572,18.615C49.581,18.664 49.598,18.712 49.623,18.755C49.648,18.798 49.68,18.837 49.718,18.869L51.745,20.599C52.45,21.201 52.923,22.029 53.084,22.942C53.245,23.854 53.084,24.795 52.627,25.601L51.314,27.92C51.29,27.963 51.273,28.01 51.264,28.06C51.255,28.109 51.255,28.159 51.263,28.209L51.704,30.836C51.857,31.75 51.688,32.689 51.224,33.492C50.761,34.294 50.032,34.911 49.164,35.235L46.668,36.167C46.621,36.185 46.578,36.21 46.54,36.242C46.501,36.274 46.469,36.313 46.444,36.356L45.092,38.652C44.622,39.451 43.889,40.061 43.018,40.378C42.147,40.695 41.192,40.699 40.319,40.389L37.808,39.499C37.761,39.482 37.711,39.474 37.661,39.474C37.611,39.474 37.562,39.482 37.514,39.499L35.003,40.389C34.13,40.699 33.176,40.695 32.305,40.378C31.434,40.061 30.7,39.451 30.23,38.652L28.879,36.356C28.853,36.313 28.821,36.274 28.783,36.242C28.744,36.21 28.701,36.185 28.654,36.167L26.158,35.235C25.29,34.911 24.562,34.294 24.098,33.492C23.635,32.689 23.465,31.75 23.618,30.836L24.059,28.209C24.067,28.159 24.067,28.109 24.058,28.06C24.05,28.01 24.033,27.963 24.008,27.92L22.695,25.601C22.239,24.795 22.077,23.854 22.238,22.942C22.399,22.029 22.872,21.201 23.577,20.599L25.604,18.869C25.642,18.837 25.674,18.798 25.699,18.755C25.724,18.712 25.741,18.664 25.751,18.615L26.235,15.996C26.404,15.084 26.884,14.26 27.594,13.664C28.304,13.068 29.2,12.738 30.126,12.73L32.79,12.708C32.84,12.708 32.89,12.699 32.937,12.682C32.984,12.664 33.028,12.639 33.066,12.608L35.121,10.912Z" style="fill:rgb(249,99,141);"/>
                </g>
                <g transform="matrix(1,0,0,1,-10.1792,1.32914)">
                    <path d="M37.757,9.566C37.949,9.572 38.14,9.586 38.329,9.615C38.799,9.687 39.257,9.835 39.68,10.052C39.936,10.183 40.176,10.34 40.403,10.516C41.118,11.093 41.821,11.684 42.53,12.269C42.531,12.27 42.533,12.272 42.535,12.273C43.424,12.299 44.313,12.288 45.202,12.295C45.297,12.297 45.297,12.297 45.392,12.301C45.805,12.327 46.212,12.401 46.604,12.536C47.631,12.89 48.507,13.625 49.034,14.575C49.188,14.852 49.311,15.146 49.403,15.45C49.439,15.573 49.469,15.697 49.497,15.822C49.674,16.723 49.832,17.628 49.999,18.531C49.999,18.533 49.999,18.536 50.001,18.538C50.665,19.129 51.353,19.692 52.029,20.269C52.101,20.332 52.101,20.332 52.171,20.396C52.471,20.681 52.735,21 52.949,21.355C53.508,22.287 53.706,23.412 53.499,24.479C53.439,24.79 53.345,25.095 53.219,25.386C53.168,25.504 53.112,25.618 53.052,25.732C52.608,26.536 52.148,27.331 51.695,28.13C51.695,28.132 51.693,28.134 51.693,28.136C51.821,29.016 51.987,29.89 52.134,30.766C52.148,30.86 52.148,30.86 52.161,30.954C52.207,31.366 52.205,31.779 52.14,32.189C51.969,33.262 51.398,34.252 50.554,34.936C50.307,35.135 50.039,35.309 49.756,35.451C49.642,35.509 49.525,35.56 49.406,35.608C48.549,35.939 47.686,36.252 46.825,36.574C46.823,36.574 46.82,36.575 46.819,36.577C46.352,37.333 45.917,38.109 45.466,38.875C45.417,38.956 45.417,38.956 45.366,39.036C45.137,39.382 44.869,39.696 44.556,39.969C43.736,40.681 42.662,41.072 41.576,41.053C41.259,41.048 40.942,41.008 40.633,40.935C40.509,40.906 40.386,40.87 40.264,40.831C39.395,40.533 38.533,40.218 37.667,39.911C37.665,39.91 37.662,39.909 37.66,39.909C36.816,40.188 35.984,40.503 35.147,40.8C35.057,40.831 35.057,40.831 34.966,40.86C34.569,40.977 34.161,41.046 33.746,41.053C32.66,41.072 31.586,40.681 30.766,39.969C30.527,39.761 30.31,39.527 30.12,39.272C30.044,39.169 29.973,39.063 29.905,38.955C29.43,38.169 28.972,37.372 28.506,36.581C28.505,36.579 28.504,36.576 28.502,36.575C27.676,36.247 26.836,35.953 26.004,35.642C25.915,35.608 25.915,35.608 25.827,35.572C25.447,35.406 25.091,35.197 24.768,34.936C23.924,34.252 23.353,33.262 23.183,32.189C23.133,31.876 23.117,31.557 23.135,31.241C23.143,31.113 23.157,30.986 23.174,30.859C23.316,29.952 23.477,29.047 23.629,28.141C23.629,28.139 23.63,28.136 23.629,28.134C23.208,27.352 22.753,26.587 22.315,25.814C22.269,25.73 22.27,25.731 22.225,25.646C22.041,25.275 21.902,24.886 21.823,24.479C21.616,23.412 21.814,22.287 22.374,21.356C22.537,21.083 22.73,20.829 22.947,20.598C23.035,20.505 23.128,20.417 23.222,20.331C23.914,19.727 24.619,19.137 25.318,18.541C25.319,18.54 25.322,18.538 25.322,18.536C25.503,17.666 25.646,16.788 25.807,15.914C25.826,15.821 25.826,15.821 25.846,15.728C25.944,15.325 26.087,14.938 26.289,14.575C26.815,13.625 27.691,12.89 28.718,12.536C29.018,12.433 29.329,12.362 29.644,12.325C29.771,12.31 29.899,12.302 30.027,12.297C30.945,12.279 31.864,12.28 32.782,12.273C32.784,12.273 32.787,12.273 32.789,12.272C33.487,11.721 34.16,11.141 34.846,10.575C34.92,10.515 34.92,10.515 34.995,10.457C35.226,10.287 35.469,10.135 35.727,10.009C36.098,9.829 36.493,9.702 36.899,9.631C37.088,9.598 37.278,9.579 37.469,9.569C37.565,9.566 37.661,9.565 37.757,9.566ZM37.584,10.436C37.43,10.441 37.277,10.453 37.124,10.476C36.747,10.534 36.379,10.653 36.039,10.827C35.833,10.932 35.641,11.059 35.459,11.2C34.738,11.781 34.041,12.393 33.314,12.967C33.213,13.04 33.101,13.095 32.979,13.122C32.93,13.133 32.881,13.139 32.831,13.142C31.906,13.17 30.979,13.149 30.053,13.167C29.694,13.182 29.341,13.243 29.002,13.36C28.152,13.652 27.433,14.269 27.014,15.064C26.858,15.359 26.75,15.673 26.678,15.999C26.5,16.908 26.359,17.824 26.171,18.731C26.159,18.779 26.145,18.826 26.126,18.873C26.077,18.989 26.004,19.089 25.914,19.176C25.223,19.792 24.5,20.372 23.802,20.981C23.556,21.205 23.338,21.457 23.16,21.739C22.681,22.499 22.507,23.43 22.678,24.313C22.746,24.665 22.87,25.001 23.037,25.319C23.485,26.13 23.966,26.922 24.405,27.738C24.459,27.851 24.494,27.969 24.5,28.095C24.502,28.145 24.499,28.194 24.494,28.244C24.36,29.16 24.179,30.069 24.036,30.984C23.988,31.34 23.987,31.698 24.043,32.053C24.184,32.94 24.666,33.756 25.376,34.306C25.64,34.511 25.93,34.673 26.238,34.799C27.103,35.133 27.98,35.43 28.841,35.773C28.955,35.824 29.058,35.893 29.143,35.986C29.177,36.022 29.206,36.062 29.234,36.103C29.721,36.891 30.167,37.704 30.645,38.497C30.837,38.8 31.066,39.076 31.337,39.311C32.016,39.901 32.91,40.215 33.807,40.18C34.141,40.167 34.467,40.105 34.785,40.004C35.661,39.704 36.525,39.368 37.404,39.077C37.525,39.043 37.648,39.029 37.773,39.045C37.822,39.052 37.87,39.063 37.918,39.077C38.797,39.368 39.661,39.704 40.538,40.004C40.855,40.105 41.181,40.167 41.515,40.18C42.413,40.215 43.307,39.901 43.985,39.311C44.256,39.076 44.485,38.8 44.677,38.497C45.155,37.704 45.601,36.891 46.088,36.103C46.158,36 46.244,35.91 46.35,35.842C46.392,35.815 46.436,35.793 46.481,35.773C47.342,35.43 48.22,35.133 49.084,34.799C49.392,34.673 49.682,34.511 49.946,34.306C50.656,33.756 51.139,32.94 51.279,32.053C51.336,31.698 51.334,31.34 51.286,30.984C51.143,30.069 50.962,29.16 50.828,28.244C50.823,28.194 50.82,28.145 50.823,28.095C50.829,27.969 50.863,27.851 50.918,27.738C51.357,26.922 51.838,26.13 52.285,25.319C52.452,25.001 52.576,24.665 52.644,24.313C52.816,23.43 52.641,22.499 52.162,21.739C51.984,21.457 51.767,21.205 51.52,20.981C50.822,20.372 50.099,19.792 49.408,19.176C49.372,19.141 49.338,19.105 49.308,19.066C49.232,18.966 49.182,18.852 49.151,18.731C48.963,17.824 48.822,16.908 48.644,15.999C48.573,15.673 48.464,15.359 48.308,15.064C47.89,14.269 47.17,13.652 46.321,13.36C45.981,13.243 45.628,13.182 45.27,13.167C44.343,13.149 43.417,13.17 42.491,13.142C42.441,13.139 42.392,13.133 42.344,13.122C42.221,13.095 42.11,13.04 42.008,12.967C41.281,12.393 40.585,11.781 39.864,11.2C39.681,11.059 39.489,10.932 39.283,10.827C38.943,10.653 38.575,10.534 38.198,10.476C38.046,10.453 37.892,10.441 37.738,10.436C37.661,10.435 37.661,10.435 37.584,10.436Z" style="fill:rgb(62,9,61);fill-rule:nonzero;"/>
                </g>
                <g transform="matrix(0.90967,0,0,0.90967,-6.77724,3.60445)">
                    <path d="M22.347,23.95C22.407,23.97 22.424,23.971 22.479,24.005C22.54,24.044 22.591,24.098 22.626,24.16C22.638,24.181 22.646,24.204 22.656,24.226C22.684,24.328 22.703,24.433 22.729,24.536C22.803,24.809 22.906,25.068 23.037,25.319C23.485,26.13 23.966,26.922 24.405,27.738C24.482,27.898 24.512,28.066 24.494,28.244C24.36,29.16 24.179,30.069 24.036,30.984C23.988,31.34 23.987,31.698 24.043,32.053C24.184,32.94 24.666,33.756 25.376,34.306C25.64,34.511 25.93,34.673 26.238,34.799C27.103,35.133 27.98,35.43 28.841,35.773C29.004,35.846 29.134,35.956 29.234,36.103C29.721,36.891 30.167,37.704 30.645,38.497C30.892,38.887 31.203,39.229 31.576,39.501C31.928,39.758 32.327,39.949 32.748,40.061C33.417,40.241 34.143,40.224 34.799,39.999L34.869,39.981C34.893,39.979 34.916,39.975 34.94,39.975C34.988,39.975 35.036,39.983 35.082,39.999C35.293,40.072 35.417,40.301 35.362,40.518C35.35,40.565 35.331,40.609 35.304,40.649C35.265,40.71 35.21,40.76 35.147,40.794C35.126,40.805 35.103,40.813 35.081,40.823C35.013,40.846 34.943,40.867 34.874,40.887C34.474,40.995 34.066,41.056 33.651,41.054C32.597,41.049 31.562,40.66 30.766,39.969C30.429,39.675 30.144,39.333 29.905,38.955C29.43,38.169 28.972,37.372 28.506,36.581C28.505,36.579 28.504,36.576 28.502,36.575C27.647,36.235 26.775,35.94 25.916,35.608C25.827,35.572 25.828,35.572 25.739,35.533C25.363,35.359 25.012,35.143 24.695,34.875C23.891,34.194 23.348,33.23 23.183,32.189C23.113,31.748 23.115,31.302 23.174,30.859C23.316,29.952 23.477,29.047 23.629,28.141C23.629,28.139 23.63,28.136 23.629,28.134C23.193,27.324 22.715,26.537 22.27,25.732C22.225,25.646 22.226,25.647 22.183,25.56C22.101,25.387 22.028,25.212 21.967,25.03C21.907,24.849 21.861,24.665 21.823,24.479L21.818,24.452C21.812,24.389 21.806,24.372 21.816,24.309C21.841,24.14 21.968,23.998 22.133,23.953C22.195,23.936 22.212,23.94 22.276,23.939C22.299,23.943 22.323,23.946 22.347,23.95ZM53.029,21.904C53.089,21.924 53.106,21.926 53.16,21.961C53.221,22 53.271,22.054 53.306,22.117C53.318,22.138 53.326,22.161 53.335,22.183C53.36,22.254 53.383,22.326 53.404,22.399C53.491,22.708 53.55,23.022 53.571,23.342C53.609,23.912 53.535,24.488 53.355,25.03C53.274,25.273 53.171,25.505 53.052,25.732C52.608,26.536 52.148,27.331 51.695,28.13C51.695,28.132 51.693,28.134 51.693,28.136C51.826,29.047 52.006,29.95 52.148,30.859C52.161,30.954 52.161,30.954 52.172,31.05C52.209,31.462 52.197,31.875 52.124,32.283C51.936,33.32 51.373,34.272 50.554,34.936C50.206,35.217 49.819,35.438 49.406,35.608C48.549,35.939 47.686,36.252 46.825,36.574C46.823,36.574 46.82,36.575 46.819,36.577C46.335,37.359 45.893,38.167 45.418,38.955C45.366,39.036 45.367,39.036 45.313,39.116C45.168,39.326 45.009,39.524 44.832,39.707C44.434,40.118 43.957,40.45 43.434,40.68C43.14,40.809 42.835,40.902 42.521,40.968L42.512,40.97C42.488,40.972 42.464,40.977 42.44,40.977C42.392,40.978 42.344,40.971 42.298,40.957C42.085,40.889 41.956,40.662 42.006,40.444C42.017,40.397 42.036,40.352 42.061,40.312C42.099,40.25 42.153,40.199 42.215,40.163C42.236,40.152 42.259,40.143 42.281,40.133C42.378,40.106 42.477,40.087 42.574,40.061C42.823,39.992 43.063,39.902 43.291,39.783C43.698,39.571 44.063,39.281 44.361,38.932C44.477,38.795 44.581,38.649 44.677,38.497C45.155,37.704 45.601,36.891 46.088,36.103C46.188,35.956 46.319,35.846 46.481,35.773C47.342,35.43 48.22,35.133 49.084,34.799C49.392,34.673 49.682,34.511 49.946,34.306C50.656,33.756 51.139,32.94 51.279,32.053C51.336,31.698 51.334,31.34 51.286,30.984C51.143,30.069 50.962,29.16 50.828,28.244C50.81,28.066 50.84,27.898 50.918,27.738C51.357,26.922 51.838,26.13 52.285,25.319C52.416,25.069 52.522,24.809 52.594,24.536C52.771,23.859 52.745,23.131 52.513,22.471L52.495,22.401C52.49,22.338 52.484,22.321 52.494,22.258C52.522,22.089 52.649,21.948 52.815,21.905C52.877,21.889 52.894,21.893 52.958,21.893C52.981,21.896 53.005,21.9 53.029,21.904ZM37.757,9.566C38.045,9.575 38.329,9.606 38.61,9.668C39.075,9.769 39.522,9.947 39.93,10.19C40.095,10.289 40.251,10.399 40.403,10.516C41.118,11.093 41.821,11.684 42.53,12.269C42.531,12.27 42.533,12.272 42.535,12.273C43.455,12.3 44.376,12.279 45.296,12.297C45.392,12.301 45.391,12.301 45.488,12.307C45.9,12.342 46.305,12.425 46.694,12.568C47.713,12.944 48.572,13.697 49.079,14.658C49.227,14.939 49.345,15.236 49.429,15.542C49.446,15.605 49.462,15.665 49.476,15.728C49.499,15.828 49.517,15.923 49.487,16.025C49.433,16.214 49.252,16.346 49.055,16.339C49.007,16.338 48.959,16.328 48.914,16.311C48.869,16.294 48.828,16.27 48.791,16.239C48.735,16.193 48.692,16.133 48.665,16.066C48.637,15.997 48.627,15.92 48.609,15.848C48.59,15.774 48.59,15.774 48.568,15.7C48.477,15.407 48.356,15.127 48.195,14.865C47.767,14.165 47.097,13.627 46.321,13.36C45.981,13.243 45.628,13.182 45.27,13.167C44.343,13.149 43.417,13.17 42.491,13.142C42.313,13.13 42.153,13.071 42.008,12.967C41.281,12.393 40.585,11.781 39.864,11.2C39.6,10.996 39.315,10.826 39.006,10.699C38.174,10.36 37.226,10.35 36.387,10.671C36.052,10.8 35.743,10.98 35.459,11.2C34.738,11.781 34.041,12.393 33.314,12.967C33.17,13.071 33.009,13.13 32.831,13.142C31.906,13.17 30.979,13.149 30.053,13.167C29.72,13.181 29.392,13.234 29.074,13.336C28.218,13.61 27.486,14.211 27.05,14.997C26.863,15.335 26.737,15.699 26.663,16.077L26.303,18.024C26.296,18.047 26.292,18.071 26.284,18.094C26.267,18.139 26.244,18.181 26.213,18.218C26.073,18.392 25.815,18.431 25.63,18.305C25.59,18.278 25.555,18.245 25.526,18.206C25.468,18.129 25.438,18.034 25.439,17.937C25.44,17.913 25.444,17.89 25.446,17.866C25.572,17.184 25.692,16.502 25.826,15.822C25.914,15.417 26.05,15.026 26.243,14.658C26.765,13.669 27.66,12.901 28.718,12.536C29.141,12.39 29.58,12.315 30.027,12.297C30.945,12.279 31.864,12.28 32.782,12.273C32.784,12.273 32.787,12.273 32.789,12.272C33.511,11.702 34.203,11.094 34.919,10.516C34.995,10.457 34.995,10.458 35.072,10.4C35.229,10.29 35.389,10.187 35.558,10.096C35.92,9.901 36.31,9.756 36.712,9.668C36.993,9.606 37.278,9.575 37.565,9.566C37.662,9.565 37.661,9.565 37.757,9.566Z" style="fill:white;fill-rule:nonzero;"/>
                </g>
                <g transform="matrix(0.963736,0,0,0.963736,2.76206,2.0235)">
                    <circle cx="25.65" cy="25.416" r="8.584" style="fill:rgb(236,85,128);"/>
                </g>
            </g>
        </g>
        <g transform="matrix(1,0,0,1,-2.7018,-1.03608)">
            <path d="M27.605,7.4C28.538,7.409 29.469,7.479 30.391,7.62C32.1,7.882 33.772,8.378 35.347,9.09C37.237,9.945 38.984,11.111 40.503,12.524C42.074,13.987 43.398,15.713 44.4,17.612C45.257,19.236 45.878,20.983 46.235,22.784C46.644,24.85 46.71,26.983 46.431,29.07C46.17,31.019 45.606,32.924 44.763,34.699C43.792,36.745 42.455,38.613 40.835,40.195C39.13,41.86 37.116,43.204 34.921,44.132C32.611,45.11 30.113,45.62 27.605,45.636C25.093,45.652 22.584,45.173 20.258,44.222C18.051,43.32 16.02,42 14.294,40.354C12.656,38.792 11.297,36.941 10.301,34.908C9.438,33.146 8.851,31.25 8.567,29.309C8.267,27.264 8.299,25.17 8.663,23.136C8.98,21.363 9.551,19.637 10.353,18.024C11.309,16.1 12.592,14.342 14.129,12.841C15.667,11.339 17.458,10.097 19.406,9.187C20.97,8.457 22.633,7.941 24.336,7.658C25.254,7.506 26.182,7.424 27.112,7.404C27.277,7.401 27.441,7.4 27.605,7.4ZM27.366,8.6C26.492,8.609 25.619,8.674 24.754,8.807C23.153,9.052 21.587,9.516 20.111,10.184C18.34,10.985 16.702,12.078 15.279,13.403C13.806,14.774 12.565,16.392 11.625,18.172C10.822,19.693 10.241,21.33 9.906,23.018C9.522,24.954 9.461,26.955 9.723,28.911C9.967,30.736 10.495,32.521 11.285,34.185C12.195,36.102 13.449,37.854 14.968,39.337C16.566,40.897 18.454,42.157 20.511,43.027C22.675,43.944 25.016,44.421 27.366,44.436C29.721,44.451 32.072,44.003 34.252,43.111C36.32,42.265 38.224,41.028 39.842,39.486C41.377,38.022 42.652,36.286 43.585,34.381C44.393,32.729 44.943,30.954 45.21,29.135C45.496,27.181 45.46,25.179 45.1,23.237C44.786,21.544 44.225,19.897 43.439,18.364C42.537,16.605 41.342,14.998 39.919,13.625C38.495,12.25 36.844,11.112 35.05,10.274C33.585,9.59 32.027,9.107 30.432,8.842C29.571,8.699 28.701,8.623 27.829,8.603C27.675,8.601 27.52,8.6 27.366,8.6ZM27.566,19.993C27.87,19.999 28.174,20.021 28.475,20.067C29.084,20.161 29.68,20.341 30.239,20.603C31.572,21.225 32.674,22.301 33.329,23.618C33.603,24.169 33.797,24.759 33.906,25.364C34.027,26.045 34.04,26.745 33.944,27.43C33.851,28.094 33.655,28.743 33.363,29.347C33.022,30.055 32.552,30.699 31.984,31.241C31.395,31.802 30.701,32.253 29.948,32.561C29.167,32.88 28.326,33.044 27.482,33.044C26.638,33.044 25.797,32.88 25.016,32.561C24.263,32.253 23.569,31.802 22.98,31.241C22.412,30.699 21.942,30.054 21.6,29.347C21.309,28.743 21.113,28.094 21.02,27.43C20.924,26.745 20.936,26.045 21.058,25.364C21.166,24.759 21.361,24.169 21.635,23.618C22.29,22.301 23.392,21.225 24.725,20.603C25.284,20.341 25.88,20.161 26.489,20.067C26.79,20.021 27.093,19.999 27.398,19.993C27.482,19.992 27.482,19.992 27.566,19.993ZM27.413,21.193C27.164,21.197 26.917,21.216 26.671,21.254C26.174,21.33 25.688,21.477 25.233,21.69C24.184,22.18 23.309,23.014 22.769,24.038C22.535,24.48 22.365,24.955 22.264,25.445C22.147,26.02 22.125,26.614 22.199,27.197C22.268,27.74 22.422,28.271 22.654,28.767C22.925,29.349 23.303,29.88 23.762,30.328C24.237,30.792 24.799,31.166 25.41,31.425C26.043,31.693 26.726,31.835 27.413,31.843C28.103,31.852 28.792,31.728 29.434,31.474C30.052,31.23 30.623,30.869 31.109,30.416C31.578,29.979 31.969,29.458 32.254,28.884C32.497,28.395 32.664,27.869 32.746,27.329C32.835,26.749 32.828,26.153 32.724,25.575C32.632,25.061 32.464,24.56 32.225,24.095C31.707,23.084 30.864,22.252 29.847,21.746C29.399,21.523 28.918,21.364 28.425,21.276C28.181,21.232 27.935,21.207 27.688,21.196C27.596,21.193 27.505,21.192 27.413,21.193Z" style="fill:rgb(62,9,61);fill-rule:nonzero;"/>
        </g>
        <g transform="matrix(0.541246,0.110003,-0.21913,1.07818,6.67877,6.42948)">
            <path d="M41.242,4.632C41.242,4.283 40.678,4 39.983,4L35.259,4C34.564,4 34,4.283 34,4.632C34,4.981 34.564,5.264 35.259,5.264L39.983,5.264C40.678,5.264 41.242,4.981 41.242,4.632Z" style="fill:rgb(255,204,0);"/>
        </g>
        <g transform="matrix(0.407816,-0.37247,0.741969,0.81238,-4.27614,31.2159)">
            <path d="M41.242,4.632C41.242,4.283 40.678,4 39.983,4L35.259,4C34.564,4 34,4.283 34,4.632C34,4.981 34.564,5.264 35.259,5.264L39.983,5.264C40.678,5.264 41.242,4.981 41.242,4.632Z" style="fill:rgb(87,186,229);"/>
        </g>
        <g transform="matrix(-0.500144,-0.234317,0.466766,-0.996298,50.9455,43.3292)">
            <path d="M41.242,4.632C41.242,4.283 40.678,4 39.983,4L35.259,4C34.564,4 34,4.283 34,4.632C34,4.981 34.564,5.264 35.259,5.264L39.983,5.264C40.678,5.264 41.242,4.981 41.242,4.632Z" style="fill:rgb(87,186,229);"/>
        </g>
        <g transform="matrix(-0.293233,0.468042,-0.93235,-0.584126,38.8488,21.0975)">
            <path d="M41.242,4.632C41.242,4.283 40.678,4 39.983,4L35.259,4C34.564,4 34,4.283 34,4.632C34,4.981 34.564,5.264 35.259,5.264L39.983,5.264C40.678,5.264 41.242,4.981 41.242,4.632Z" style="fill:rgb(255,204,0);"/>
        </g>
        <g transform="matrix(1,0,0,1,-16.7811,16.246)">
            <circle cx="34.781" cy="18.059" r="0.781" style="fill:rgb(87,186,229);"/>
        </g>
        <g transform="matrix(1,0,0,1.00323,-2.08635,-1.3313)">
            <circle cx="34.781" cy="18.059" r="0.781" style="fill:rgb(87,186,229);"/>
        </g>
        <g transform="matrix(1,0,0,1,0.785754,5.05126)">
            <circle cx="34.781" cy="18.059" r="0.781" style="fill:rgb(255,204,0);"/>
        </g>
        <g transform="matrix(1,0,0,1,-19.5491,9.01327)">
            <circle cx="34.781" cy="18.059" r="0.781" style="fill:rgb(255,204,0);"/>
        </g>
        <g transform="matrix(1,0,0,1,-17.1157,-2.07284)">
            <circle cx="34.781" cy="18.059" r="0.781" style="fill:rgb(255,204,0);"/>
        </g>
        <g transform="matrix(1,0,0,1,-4,16.722)">
            <circle cx="34.781" cy="18.059" r="0.781" style="fill:rgb(87,186,229);"/>
        </g>
    </g>
</svg>
